<?xml version="1.0" encoding="utf-8"?>
<!-- Svg Vector Icons : http://www.onlinewebfonts.com/icon -->
<!DOCTYPE svg PUBLIC "-//W3C//DTD SVG 1.1//EN" "http://www.w3.org/Graphics/SVG/1.1/DTD/svg11.dtd">
<svg version="1.1" xmlns="http://www.w3.org/2000/svg" xmlns:xlink="http://www.w3.org/1999/xlink" x="0px" y="0px" viewBox="0 0 1000 1000" enable-background="new 0 0 1000 1000" xml:space="preserve">
<metadata> Svg Vector Icons : http://www.onlinewebfonts.com/icon </metadata>
<g><g><path d="M500,10C229.4,10,10,229.4,10,500c0,270.6,219.4,490,490,490c270.6,0,490-219.4,490-490C990,229.4,770.6,10,500,10z M779.6,578.7H571.1v208.5c0,35.7-28.9,64.7-64.7,64.7c-35.7,0-64.7-29-64.7-64.7V578.7H233.4c-35.7,0-64.7-28.9-64.7-64.7c0-35.7,29-64.7,64.7-64.7h208.5V240.9c0-35.7,29-64.7,64.7-64.7c35.7,0,64.7,28.9,64.7,64.7v208.5h208.5c35.7,0,64.7,29,64.7,64.7C844.3,549.8,815.3,578.7,779.6,578.7z"/></g><g></g><g></g><g></g><g></g><g></g><g></g><g></g><g></g><g></g><g></g><g></g><g></g><g></g><g></g><g></g></g>
</svg>